<?xml version="1.0" encoding="UTF-8" standalone="no"?>
<!-- Created with Inkscape (http://www.inkscape.org/) -->
<svg id="svg2" xmlns:rdf="http://www.w3.org/1999/02/22-rdf-syntax-ns#" xmlns="http://www.w3.org/2000/svg" height="43.288" width="132.01" version="1.1" xmlns:cc="http://creativecommons.org/ns#" xmlns:dc="http://purl.org/dc/elements/1.1/">
 <metadata id="metadata7">
  <rdf:RDF>
   <cc:Work rdf:about="">
    <dc:format>image/svg+xml</dc:format>
    <dc:type rdf:resource="http://purl.org/dc/dcmitype/StillImage"/>
    <dc:title/>
   </cc:Work>
  </rdf:RDF>
 </metadata>
 <g id="layer1" fill="#CCC" transform="translate(-151.95364,-534.30571)">
  <g id="text2985" style="letter-spacing:0px;word-spacing:0px;" font-weight="normal" transform="matrix(0.98482363,-0.17355813,0.17355813,0.98482363,-93.175173,46.458688)" font-size="40px" font-style="normal" font-family="Sans" line-height="125%">
   <path id="path2990" d="m154.11,566.48,0-28.555,6.0547,0,0,23.555,11.582,0,0,5-17.637,0"/>
   <path id="path2992" d="m176.04,539c0-1.9401,1.0807-2.9101,3.2422-2.9102,2.1614,0.00003,3.2422,0.97008,3.2422,2.9102,0,0.92451-0.27344,1.6472-0.82031,2.168-0.53386,0.50784-1.3412,0.76174-2.4219,0.76172-2.1615,0.00002-3.2422-0.97654-3.2422-2.9297m6.2109,27.48-5.957,0,0-21.836,5.957,0,0,21.836"/>
   <path id="path2994" d="m208.72,566.48-5.957,0,0-12.754c-0.00002-1.5755-0.27997-2.7539-0.83984-3.5352-0.55992-0.79426-1.4518-1.1914-2.6758-1.1914-1.6667,0.00002-2.8711,0.55991-3.6133,1.6797-0.74219,1.1068-1.1133,2.9492-1.1133,5.5273v10.273h-5.957v-21.836h4.5508l0.80078,2.793h0.33203c0.66406-1.0547,1.5755-1.8489,2.7344-2.3828,1.1719-0.54685,2.5-0.82029,3.9844-0.82031,2.539,0.00002,4.4661,0.69012,5.7812,2.0703,1.3151,1.3672,1.9726,3.3464,1.9727,5.9375v14.238"/>
   <path id="path2996" d="m228.75,566.48-1.1523-2.9688-0.15625,0c-1.0026,1.263-2.0378,2.1419-3.1055,2.6367-1.0547,0.48177-2.4349,0.72266-4.1406,0.72266-2.0964,0-3.75-0.59896-4.9609-1.7969-1.1979-1.1979-1.7969-2.9036-1.7969-5.1172,0-2.3177,0.80729-4.0234,2.4219-5.1172,1.6276-1.1068,4.0755-1.7187,7.3438-1.8359l3.7891-0.11719v-0.95703c-0.00001-2.2135-1.1328-3.3203-3.3984-3.3203-1.7448,0.00001-3.7956,0.52736-6.1523,1.582l-1.9727-4.0234c2.513-1.3151,5.2995-1.9726,8.3594-1.9727,2.9297,0.00003,5.1758,0.63805,6.7383,1.9141,1.5625,1.2761,2.3437,3.2162,2.3438,5.8203v14.551h-4.1602m-1.7578-10.117-2.3047,0.0781c-1.7318,0.0521-3.0208,0.36459-3.8672,0.9375-0.84637,0.57292-1.2695,1.4453-1.2695,2.6172,0,1.6797,0.96354,2.5195,2.8906,2.5195,1.3802,0,2.4805-0.39713,3.3008-1.1914,0.83332-0.79426,1.25-1.849,1.25-3.1641v-1.7969"/>
   <path id="path2998" d="m251.02,566.87c-2.5651,0-4.5768-0.93099-6.0352-2.793h-0.3125c0.20833,1.8229,0.31249,2.8776,0.3125,3.1641v8.8477h-5.957v-31.445h4.8438l0.83984,2.832h0.27344c1.3932-2.1614,3.457-3.2422,6.1914-3.2422,2.5781,0.00002,4.5963,0.99611,6.0547,2.9883,1.4583,1.9922,2.1875,4.7591,2.1875,8.3008-0.00003,2.3307-0.34508,4.3555-1.0352,6.0742-0.67711,1.7188-1.6472,3.0273-2.9102,3.9258-1.263,0.89844-2.7474,1.3477-4.4531,1.3477m-1.7578-17.871c-1.4714,0.00002-2.5456,0.45575-3.2227,1.3672-0.67709,0.89845-1.0287,2.3893-1.0547,4.4727v0.64453c-0.00001,2.3438,0.34504,4.0234,1.0352,5.0391,0.70311,1.0156,1.8099,1.5234,3.3203,1.5234,2.6693,0,4.0039-2.2005,4.0039-6.6016-0.00002-2.1484-0.33205-3.7565-0.9961-4.8242-0.65105-1.0807-1.6797-1.6211-3.0859-1.6211"/>
   <path id="path3000" d="m276.33,566.87c-2.5651,0-4.5768-0.93099-6.0352-2.793h-0.3125c0.20833,1.8229,0.31249,2.8776,0.3125,3.1641v8.8477h-5.957v-31.445h4.8438l0.83984,2.832h0.27344c1.3932-2.1614,3.457-3.2422,6.1914-3.2422,2.5781,0.00002,4.5963,0.99611,6.0547,2.9883,1.4583,1.9922,2.1875,4.7591,2.1875,8.3008-0.00003,2.3307-0.34508,4.3555-1.0352,6.0742-0.67711,1.7188-1.6472,3.0273-2.9102,3.9258-1.263,0.89844-2.7474,1.3477-4.4531,1.3477m-1.7578-17.871c-1.4714,0.00002-2.5456,0.45575-3.2227,1.3672-0.67709,0.89845-1.0287,2.3893-1.0547,4.4727v0.64453c-0.00001,2.3438,0.34504,4.0234,1.0352,5.0391,0.70311,1.0156,1.8099,1.5234,3.3203,1.5234,2.6693,0,4.0039-2.2005,4.0039-6.6016-0.00002-2.1484-0.33205-3.7565-0.9961-4.8242-0.65105-1.0807-1.6797-1.6211-3.0859-1.6211"/>
  </g>
  <path id="path3002" d="m155.73,567.77c-0.91813-5.0184-1.9502-11.174-2.2936-13.679-0.59198-4.319-0.49763-4.5542,1.8267-4.5542,2.335,0,2.539,0.52941,4.3129,11.195l1.862,11.195,6.0212-0.69883c5.4772-0.6357,5.9892-0.5328,5.6673,1.139-0.35308,1.8334-2.4192,2.5309-11.554,3.9007l-4.1736,0.62587-1.6693-9.1244z"/>
 </g>
</svg>
